#!OML:ASF H:\Dans Jumps\Project 1\Capture day 1\Session 1\subject.ASF
:FULLY-SPECIFIED
:DEGREES
97
root 0.409187 14.5935 4.47432 1.57457 -3.45591 -2.2115
lowerback 14.1471 0.188284 1.04716
upperback 9.41146 0.337653 1.92636
thorax 1.99289 0.149379 1.38139
lowerneck -12.097 -0.12373 -2.40215
upperneck -7.47337 0.179187 2.46407
head -0.333743 0.158783 1.17153
rclavicle -2.98177e-015 7.55382e-015
rhumerus 41.351 7.1325 -31.8932
rradius 67.8389
rwrist 21.8002
rhand -23.864 -37.6873
rfingers 7.12502
rthumb 2.60865 -67.6511
lclavicle -2.98177e-015 7.55382e-015
lhumerus 44.4633 -6.83204 36.2333
lradius 65.9533
lwrist 6.01646
lhand -31.9312 -3.10451
lfingers 7.12502
lthumb -5.18233 26.8121
rfemur -43.2348 -11.3077 15.0274
rtibia 77.5251
rfoot -31.6533 -5.79752
rtoes -12.5493
lfemur -40.4671 16.6531 -11.819
ltibia 77.5821
lfoot -30.3602 14.3227
ltoes -12.7549
98
root 0.407938 14.5935 4.47438 1.57883 -3.4453 -2.2203
lowerback 14.147 0.185997 1.06685
upperback 9.41829 0.336667 1.92381
thorax 2.00045 0.149847 1.36782
lowerneck -11.764 -0.176232 -2.01891
upperneck -7.86292 0.0510879 2.08068
head -0.508104 0.0804859 0.978871
rclavicle 4.96962e-015 3.97569e-016
rhumerus 41.351 7.11629 -31.9073
rradius 67.8369
rwrist 21.8021
rhand -23.8409 -37.7157
rfingers 7.12502
rthumb 2.631 -67.6792
lclavicle 4.96962e-015 3.97569e-016
lhumerus 44.4648 -6.83486 36.2245
lradius 65.9735
lwrist 6.05005
lhand -31.9382 -3.08721
lfingers 7.12502
lthumb -5.18903 26.8293
rfemur -43.2364 -11.3133 15.0456
rtibia 77.5231
rfoot -31.6266 -5.8302
rtoes -12.4996
lfemur -40.4742 16.6419 -11.803
ltibia 77.5778
lfoot -30.3563 14.306
ltoes -12.7765
99
root 0.406636 14.5948 4.47496 1.59086 -3.44997 -2.23105
lowerback 14.1487 0.190808 1.07894
upperback 9.40348 0.344695 1.92535
thorax 1.98363 0.154386 1.36155
lowerneck -11.7115 -0.184305 -1.98707
upperneck -7.90306 0.0356233 2.0616
head -0.528785 0.0715163 0.966856
rclavicle -1.03368e-014 -1.98785e-015
rhumerus 41.3278 7.13425 -31.905
rradius 67.8492
rwrist 21.8039
rhand -23.8152 -37.6886
rfingers 7.12502
rthumb 2.6558 -67.6518
lclavicle -1.03368e-014 -1.98785e-015
lhumerus 44.4663 -6.86619 36.2115
lradius 65.9666
lwrist 6.08771
lhand -31.9176 -3.0252
lfingers 7.12502
lthumb -5.16918 26.8918
rfemur -43.2424 -11.3088 15.0653
rtibia 77.5096
rfoot -31.6271 -5.80755
rtoes -12.5011
lfemur -40.473 16.6451 -11.7895
ltibia 77.5619
lfoot -30.3546 14.3152
ltoes -12.7474
100
root 0.405978 14.5969 4.47629 1.58227 -3.42374 -2.21404
lowerback 14.1566 0.179685 1.06291
upperback 9.39715 0.328813 1.92565
thorax 1.97288 0.145761 1.37275
lowerneck -11.7021 -0.167468 -1.98388
upperneck -7.90021 0.057316 2.05264
head -0.529856 0.0822686 0.964115
rclavicle -3.77691e-015 -6.75868e-015
rhumerus 41.3374 7.1579 -31.8971
rradius 67.8455
rwrist 21.8142
rhand -23.7568 -37.6322
rfingers 7.12502
rthumb 2.71222 -67.5947
lclavicle -3.77691e-015 -6.75868e-015
lhumerus 44.4189 -6.87081 36.235
lradius 65.9724
lwrist 6.07642
lhand -31.9133 -3.06957
lfingers 7.12502
lthumb -5.16499 26.8475
rfemur -43.2055 -11.3382 15.0426
rtibia 77.4958
rfoot -31.6309 -5.81792
rtoes -12.5057
lfemur -40.4479 16.6142 -11.8042
ltibia 77.5389
lfoot -30.3666 14.304
ltoes -12.8063
101
root 0.404908 14.5987 4.47754 1.58803 -3.42606 -2.21664
lowerback 14.136 0.185901 1.07083
upperback 9.40942 0.337081 1.92288
thorax 1.99681 0.150341 1.36452
lowerneck -11.7162 -0.1739 -1.98118
upperneck -7.90466 0.049024 2.06141
head -0.528828 0.0781454 0.966203
rclavicle 4.77083e-015 -2.14687e-014
rhumerus 41.3523 7.13593 -31.8951
rradius 67.8093
rwrist 21.8272
rhand -23.7634 -37.6618
rfingers 7.12502
rthumb 2.70582 -67.6243
lclavicle 4.77083e-015 -2.14687e-014
lhumerus 44.4408 -6.87596 36.2168
lradius 65.9725
lwrist 6.0888
lhand -31.9095 -3.12823
lfingers 7.12502
lthumb -5.16139 26.7889
rfemur -43.1975 -11.3313 15.0532
rtibia 77.4782
rfoot -31.6348 -5.83528
rtoes -12.5315
lfemur -40.4398 16.6163 -11.7921
ltibia 77.5214
lfoot -30.3919 14.228
ltoes -12.6049
102
root 0.404274 14.5998 4.47763 1.58794 -3.44978 -2.17596
lowerback 14.1372 0.200974 1.03254
upperback 9.41386 0.352558 1.9129
thorax 2.00039 0.156657 1.37379
lowerneck -11.7124 -0.183029 -1.986
upperneck -7.93517 0.0377375 2.06426
head -0.538778 0.0725696 0.967578
rclavicle -2.78299e-015 -1.55052e-014
rhumerus 41.3409 7.12989 -31.8764
rradius 67.833
rwrist 21.8502
rhand -23.8148 -37.9362
rfingers 7.12502
rthumb 2.65621 -67.8994
lclavicle -2.78299e-015 -1.55052e-014
lhumerus 44.4361 -6.8791 36.2231
lradius 65.9868
lwrist 6.08365
lhand -31.9279 -3.12327
lfingers 7.12502
lthumb -5.17914 26.7934
rfemur -43.2025 -11.3197 15.0083
rtibia 77.4693
rfoot -31.6561 -5.77885
rtoes -12.4761
lfemur -40.4224 16.6296 -11.8402
ltibia 77.5004
lfoot -30.361 14.2774
ltoes -12.6792
103
root 0.402986 14.6011 4.47802 1.58234 -3.44152 -2.21421
lowerback 14.1513 0.19598 1.07375
upperback 9.40437 0.351036 1.9186
thorax 1.98312 0.157571 1.35664
lowerneck -11.6832 -0.173531 -1.99996
upperneck -7.92059 0.0521757 2.08617
head -0.539045 0.0801714 0.977243
rclavicle 1.03368e-014 3.29983e-014
rhumerus 41.326 7.15319 -31.8635
rradius 67.8395
rwrist 21.8353
rhand -23.7727 -37.6943
rfingers 7.12502
rthumb 2.69692 -67.657
lclavicle 1.03368e-014 3.29983e-014
lhumerus 44.4082 -6.90063 36.2116
lradius 65.9902
lwrist 6.08786
lhand -31.9422 -3.16171
lfingers 7.12502
lthumb -5.19288 26.7547
rfemur -43.1784 -11.3147 15.0608
rtibia 77.4509
rfoot -31.6067 -5.83053
rtoes -12.6028
lfemur -40.4052 16.6326 -11.7867
ltibia 77.4856
lfoot -30.3555 14.2616
ltoes -12.6595
104
root 0.402282 14.6021 4.4784 1.58817 -3.44634 -2.20839
lowerback 14.166 0.194246 1.06943
upperback 9.39142 0.348915 1.91461
thorax 1.96151 0.156433 1.35503
lowerneck -12.1092 -0.109705 -2.43312
upperneck -7.45489 0.203412 2.52101
head -0.326352 0.172257 1.1959
rclavicle 2.38542e-015 -2.66371e-014
rhumerus 41.3296 7.18065 -31.8641
rradius 67.8415
rwrist 21.8379
rhand -23.6306 -37.8089
rfingers 7.12502
rthumb 2.83409 -67.7699
lclavicle 2.38542e-015 -2.66371e-014
lhumerus 44.3982 -6.91289 36.1838
lradius 65.9785
lwrist 6.0715
lhand -31.9151 -3.17205
lfingers 7.12502
lthumb -5.16675 26.745
rfemur -43.1738 -11.303 15.0541
rtibia 77.4419
rfoot -31.612 -5.82895
rtoes -12.59
lfemur -40.4028 16.6363 -11.7911
ltibia 77.4694
lfoot -30.3662 14.2323
ltoes -12.5993
105
root 0.401813 14.6034 4.47948 1.60812 -3.44752 -2.19171
lowerback 14.1212 0.193618 1.05174
upperback 9.4056 0.344844 1.91198
thorax 2.00027 0.153698 1.36294
lowerneck -12.1275 -0.105484 -2.40388
upperneck -7.46288 0.205176 2.49094
head -0.326123 0.172323 1.18139
rclavicle -4.17448e-015 -3.57812e-015
rhumerus 41.3597 7.16866 -31.846
rradius 67.8446
rwrist 21.8131
rhand -23.5956 -37.8146
rfingers 7.12502
rthumb 2.86788 -67.7751
lclavicle -4.17448e-015 -3.57812e-015
lhumerus 44.3912 -6.89182 36.1751
lradius 65.9867
lwrist 6.06734
lhand -31.9027 -3.14998
lfingers 7.12502
lthumb -5.15479 26.7673
rfemur -43.1884 -11.3083 15.0417
rtibia 77.4311
rfoot -31.6409 -5.81254
rtoes -12.6184
lfemur -40.413 16.6319 -11.8164
ltibia 77.4548
lfoot -30.335 14.2685
ltoes -12.702
106
root 0.400978 14.6048 4.48058 1.60017 -3.4438 -2.17602
lowerback 14.1239 0.19701 1.04538
upperback 9.40771 0.348662 1.90435
thorax 2.00104 0.155574 1.35809
lowerneck -12.0645 -0.1203 -2.32519
upperneck -7.52622 0.173698 2.42289
head -0.355704 0.153701 1.14479
rclavicle 7.95139e-015 2.62396e-014
rhumerus 41.3577 7.16728 -31.8462
rradius 67.835
rwrist 21.8139
rhand -23.6406 -37.6276
rfingers 7.12502
rthumb 2.82447 -67.5886
lclavicle 7.95139e-015 2.62396e-014
lhumerus 44.4063 -6.90218 36.1696
lradius 65.976
lwrist 6.0488
lhand -31.8766 -3.10607
lfingers 7.12502
lthumb -5.12957 26.8118
rfemur -43.166 -11.3153 15.0251
rtibia 77.4228
rfoot -31.6369 -5.83114
rtoes -12.7077
lfemur -40.3916 16.6241 -11.8278
ltibia 77.4347
lfoot -30.3241 14.2672
ltoes -12.6392
107
root 0.399515 14.6046 4.47984 1.60838 -3.4422 -2.2014
lowerback 14.1116 0.19639 1.05707
upperback 9.41733 0.348569 1.9204
thorax 2.01788 0.155546 1.36841
lowerneck -12.0603 -0.116017 -2.32376
upperneck -7.55595 0.178891 2.39978
head -0.36596 0.15609 1.13729
rclavicle -9.14409e-015 -2.3059e-014
rhumerus 41.3752 7.16279 -31.8265
rradius 67.8376
rwrist 21.8154
rhand -23.6445 -37.8188
rfingers 7.12502
rthumb 2.82072 -67.7799
lclavicle -9.14409e-015 -2.3059e-014
lhumerus 44.3998 -6.87794 36.1741
lradius 65.9726
lwrist 6.03263
lhand -31.8823 -3.14684
lfingers 7.12502
lthumb -5.1351 26.7709
rfemur -43.1792 -11.2974 15.0642
rtibia 77.422
rfoot -31.6254 -5.83291
rtoes -12.6623
lfemur -40.4035 16.6375 -11.7926
ltibia 77.4336
lfoot -30.3343 14.2283
ltoes -12.6311
108
root 0.399256 14.6063 4.48143 1.60258 -3.43354 -2.17437
lowerback 14.1164 0.198427 1.0373
upperback 9.4083 0.34952 1.91283
thorax 2.00555 0.15542 1.37142
lowerneck -11.9876 -0.121911 -2.23045
upperneck -7.61224 0.156879 2.3149
head -0.395124 0.141744 1.09326
rclavicle -7.55382e-015 1.15295e-014
rhumerus 41.3553 7.17787 -31.8164
rradius 67.8378
rwrist 21.8003
rhand -23.656 -37.854
rfingers 7.12502
rthumb 2.80956 -67.8152
lclavicle -7.55382e-015 1.15295e-014
lhumerus 44.3956 -6.9007 36.1778
lradius 65.9764
lwrist 6.0368
lhand -31.9428 -3.17987
lfingers 7.12502
lthumb -5.19346 26.7365
rfemur -43.1642 -11.3147 15.0323
rtibia 77.416
rfoot -31.6313 -5.8387
rtoes -12.7403
lfemur -40.3759 16.6238 -11.8236
ltibia 77.4186
lfoot -30.3259 14.2619
ltoes -12.7059
109
root 0.398105 14.6058 4.48046 1.62388 -3.42751 -2.17428
lowerback 14.1106 0.197439 1.02892
upperback 9.40616 0.347263 1.91944
thorax 2.00625 0.153732 1.38332
lowerneck -11.9193 -0.128553 -2.18479
upperneck -7.70923 0.14089 2.25952
head -0.436402 0.131787 1.06704
rclavicle 2.98177e-015 1.35174e-014
rhumerus 41.3813 7.17658 -31.8024
rradius 67.8315
rwrist 21.8092
rhand -23.6438 -37.8247
rfingers 7.12502
rthumb 2.82136 -67.7858
lclavicle 2.98177e-015 1.35174e-014
lhumerus 44.3911 -6.88081 36.183
lradius 65.9648
lwrist 6.05529
lhand -31.8923 -3.20565
lfingers 7.12502
lthumb -5.14476 26.7119
rfemur -43.1961 -11.3126 15.0401
rtibia 77.4191
rfoot -31.6304 -5.82447
rtoes -12.6856
lfemur -40.4125 16.6229 -11.8256
ltibia 77.4204
lfoot -30.3528 14.1931
ltoes -12.5612
110
root 0.396718 14.6064 4.48022 1.63087 -3.4124 -2.21133
lowerback 14.1214 0.188022 1.06029
upperback 9.39777 0.338771 1.9297
thorax 1.99195 0.150583 1.37733
lowerneck -11.909 -0.129425 -2.18248
upperneck -7.7172 0.139491 2.26462
head -0.440503 0.130974 1.06818
rclavicle 4.57205e-015 3.57812e-015
rhumerus 41.3862 7.18632 -31.803
rradius 67.8276
rwrist 21.7901
rhand -23.6783 -37.8639
rfingers 7.12502
rthumb 2.788 -67.8254
lclavicle 4.57205e-015 3.57812e-015
lhumerus 44.3813 -6.87887 36.173
lradius 65.9701
lwrist 6.08812
lhand -31.9045 -3.21021
lfingers 7.12502
lthumb -5.15649 26.7071
rfemur -43.1929 -11.3057 15.0896
rtibia 77.4131
rfoot -31.5951 -5.83107
rtoes -12.4917
lfemur -40.4252 16.6235 -11.7805
ltibia 77.4141
lfoot -30.3287 14.195
ltoes -12.5847
111
root 0.396496 14.6075 4.48195 1.62174 -3.40286 -2.17782
lowerback 14.1175 0.188668 1.03243
upperback 9.40023 0.336539 1.92231
thorax 1.99647 0.14848 1.38557
lowerneck -11.8825 -0.13499 -2.18374
upperneck -7.73833 0.131801 2.25873
head -0.451215 0.126956 1.06619
rclavicle 7.95139e-016 1.59028e-015
rhumerus 41.3834 7.18985 -31.7905
rradius 67.8257
rwrist 21.7914
rhand -23.6276 -37.6147
rfingers 7.12502
rthumb 2.83705 -67.5756
lclavicle 7.95139e-016 1.59028e-015
lhumerus 44.3803 -6.88179 36.1612
lradius 65.9696
lwrist 6.11438
lhand -31.8854 -3.21996
lfingers 7.12502
lthumb -5.13805 26.6977
rfemur -43.1687 -11.3254 15.0465
rtibia 77.4094
rfoot -31.647 -5.81102
rtoes -12.5522
lfemur -40.3974 16.6106 -11.8163
ltibia 77.4017
lfoot -30.3274 14.2057
ltoes -12.6154
